<mxfile host="app.diagrams.net" agent="Mozilla/5.0 (Windows NT 10.0; Win64; x64) AppleWebKit/537.36 (KHTML, like Gecko) Chrome/128.0.0.0 Safari/537.36 Edg/128.0.0.0" version="24.8.6">
  <diagram name="第 1 页" id="IVj4YheJUnUbKmU-zy78">
    <mxGraphModel dx="3376" dy="953" grid="1" gridSize="10" guides="1" tooltips="1" connect="1" arrows="1" fold="1" page="1" pageScale="1" pageWidth="827" pageHeight="1169" math="0" shadow="0">
      <root>
        <mxCell id="0" />
        <mxCell id="1" parent="0" />
        <mxCell id="REJQzGrKMzvsICrpIetw-78" value="" style="rounded=0;whiteSpace=wrap;html=1;dashed=1;strokeColor=#FF0000;" vertex="1" parent="1">
          <mxGeometry x="-610" y="560" width="140" height="36.25" as="geometry" />
        </mxCell>
        <mxCell id="REJQzGrKMzvsICrpIetw-62" style="edgeStyle=orthogonalEdgeStyle;rounded=0;orthogonalLoop=1;jettySize=auto;html=1;endArrow=none;endFill=0;" edge="1" parent="1" source="REJQzGrKMzvsICrpIetw-59">
          <mxGeometry relative="1" as="geometry">
            <mxPoint x="-240" y="510" as="targetPoint" />
          </mxGeometry>
        </mxCell>
        <mxCell id="REJQzGrKMzvsICrpIetw-59" value="" style="rounded=1;whiteSpace=wrap;html=1;dashed=1;" vertex="1" parent="1">
          <mxGeometry x="-523" y="360" width="233" height="110" as="geometry" />
        </mxCell>
        <mxCell id="REJQzGrKMzvsICrpIetw-55" value="" style="rounded=0;whiteSpace=wrap;html=1;dashed=1;" vertex="1" parent="1">
          <mxGeometry x="-430" y="400" width="50" height="60" as="geometry" />
        </mxCell>
        <mxCell id="REJQzGrKMzvsICrpIetw-30" style="edgeStyle=orthogonalEdgeStyle;rounded=0;orthogonalLoop=1;jettySize=auto;html=1;" edge="1" parent="1" source="REJQzGrKMzvsICrpIetw-25">
          <mxGeometry relative="1" as="geometry">
            <mxPoint x="-680" y="440" as="targetPoint" />
            <Array as="points">
              <mxPoint x="-700" y="400" />
              <mxPoint x="-700" y="440" />
            </Array>
          </mxGeometry>
        </mxCell>
        <mxCell id="REJQzGrKMzvsICrpIetw-84" style="edgeStyle=orthogonalEdgeStyle;rounded=0;orthogonalLoop=1;jettySize=auto;html=1;exitX=1;exitY=0.5;exitDx=0;exitDy=0;entryX=0;entryY=0.5;entryDx=0;entryDy=0;" edge="1" parent="1" source="REJQzGrKMzvsICrpIetw-25" target="REJQzGrKMzvsICrpIetw-83">
          <mxGeometry relative="1" as="geometry">
            <Array as="points">
              <mxPoint x="-700" y="400" />
              <mxPoint x="-700" y="510" />
            </Array>
          </mxGeometry>
        </mxCell>
        <mxCell id="REJQzGrKMzvsICrpIetw-25" value="" style="rounded=1;whiteSpace=wrap;html=1;dashed=1;fillColor=#f5f5f5;fontColor=#333333;strokeColor=#666666;" vertex="1" parent="1">
          <mxGeometry x="-813" y="375" width="100" height="50" as="geometry" />
        </mxCell>
        <mxCell id="REJQzGrKMzvsICrpIetw-9" style="edgeStyle=orthogonalEdgeStyle;rounded=0;orthogonalLoop=1;jettySize=auto;html=1;entryX=0.5;entryY=0;entryDx=0;entryDy=0;strokeColor=#7EA6E0;" edge="1" parent="1" source="REJQzGrKMzvsICrpIetw-1" target="REJQzGrKMzvsICrpIetw-8">
          <mxGeometry relative="1" as="geometry">
            <mxPoint x="539" y="580" as="targetPoint" />
          </mxGeometry>
        </mxCell>
        <mxCell id="REJQzGrKMzvsICrpIetw-1" value="教育及工作经历" style="rounded=0;whiteSpace=wrap;html=1;fillColor=#f8cecc;strokeColor=#b85450;" vertex="1" parent="1">
          <mxGeometry x="493.75" y="330" width="90" height="40" as="geometry" />
        </mxCell>
        <mxCell id="REJQzGrKMzvsICrpIetw-2" value="华南师范大学-计算机学院-人工智能" style="rounded=1;whiteSpace=wrap;html=1;fillColor=#dae8fc;strokeColor=#6c8ebf;" vertex="1" parent="1">
          <mxGeometry x="423.75" y="380" width="230" height="40" as="geometry" />
        </mxCell>
        <mxCell id="REJQzGrKMzvsICrpIetw-5" value="毕设：基于隐扩散模型合成单细胞RNA测序数据" style="shape=hexagon;perimeter=hexagonPerimeter2;whiteSpace=wrap;html=1;fixedSize=1;fillColor=#f5f5f5;fontColor=#333333;strokeColor=#666666;" vertex="1" parent="1">
          <mxGeometry x="401.25" y="490" width="275" height="30" as="geometry" />
        </mxCell>
        <mxCell id="REJQzGrKMzvsICrpIetw-6" value="华为昇思mindspore开源实习&lt;div&gt;（优秀实习生，资深开发者认证）&lt;/div&gt;" style="rounded=0;whiteSpace=wrap;html=1;fillColor=#e1d5e7;strokeColor=#9673a6;" vertex="1" parent="1">
          <mxGeometry x="447.5" y="430" width="182.5" height="50" as="geometry" />
        </mxCell>
        <mxCell id="REJQzGrKMzvsICrpIetw-7" value="南方测绘广州分公司--算法工程师" style="rounded=1;whiteSpace=wrap;html=1;fillColor=#dae8fc;strokeColor=#6c8ebf;" vertex="1" parent="1">
          <mxGeometry x="443.75" y="530" width="190" height="20" as="geometry" />
        </mxCell>
        <mxCell id="REJQzGrKMzvsICrpIetw-8" value="华师-港科广联合实验室RA" style="rounded=1;whiteSpace=wrap;html=1;fillColor=#dae8fc;strokeColor=#6c8ebf;" vertex="1" parent="1">
          <mxGeometry x="443.75" y="565" width="190" height="20" as="geometry" />
        </mxCell>
        <mxCell id="REJQzGrKMzvsICrpIetw-64" style="edgeStyle=orthogonalEdgeStyle;rounded=0;orthogonalLoop=1;jettySize=auto;html=1;" edge="1" parent="1" source="REJQzGrKMzvsICrpIetw-10">
          <mxGeometry relative="1" as="geometry">
            <mxPoint x="-350" y="610" as="targetPoint" />
          </mxGeometry>
        </mxCell>
        <mxCell id="REJQzGrKMzvsICrpIetw-10" value="rrf" style="rounded=0;whiteSpace=wrap;html=1;" vertex="1" parent="1">
          <mxGeometry x="-270" y="590" width="60" height="40" as="geometry" />
        </mxCell>
        <mxCell id="REJQzGrKMzvsICrpIetw-22" style="edgeStyle=orthogonalEdgeStyle;rounded=0;orthogonalLoop=1;jettySize=auto;html=1;" edge="1" parent="1">
          <mxGeometry relative="1" as="geometry">
            <mxPoint x="-807" y="442.5" as="targetPoint" />
            <mxPoint x="-844" y="442.5027932960894" as="sourcePoint" />
          </mxGeometry>
        </mxCell>
        <mxCell id="REJQzGrKMzvsICrpIetw-16" value="" style="rounded=0;whiteSpace=wrap;html=1;fillColor=#dae8fc;strokeColor=#6c8ebf;" vertex="1" parent="1">
          <mxGeometry x="-910" y="410" width="60" height="65" as="geometry" />
        </mxCell>
        <mxCell id="REJQzGrKMzvsICrpIetw-17" value="文档" style="text;html=1;align=center;verticalAlign=middle;resizable=0;points=[];autosize=1;strokeColor=none;fillColor=none;" vertex="1" parent="1">
          <mxGeometry x="-905" y="370" width="50" height="30" as="geometry" />
        </mxCell>
        <mxCell id="REJQzGrKMzvsICrpIetw-19" value="" style="rounded=0;whiteSpace=wrap;html=1;" vertex="1" parent="1">
          <mxGeometry x="-803" y="400" width="80" height="20" as="geometry" />
        </mxCell>
        <mxCell id="REJQzGrKMzvsICrpIetw-20" value="" style="rounded=0;whiteSpace=wrap;html=1;" vertex="1" parent="1">
          <mxGeometry x="-803" y="430" width="80" height="20" as="geometry" />
        </mxCell>
        <mxCell id="REJQzGrKMzvsICrpIetw-21" value="" style="rounded=0;whiteSpace=wrap;html=1;" vertex="1" parent="1">
          <mxGeometry x="-803" y="460" width="80" height="20" as="geometry" />
        </mxCell>
        <mxCell id="REJQzGrKMzvsICrpIetw-23" value="切分" style="text;html=1;align=center;verticalAlign=middle;resizable=0;points=[];autosize=1;strokeColor=none;fillColor=none;" vertex="1" parent="1">
          <mxGeometry x="-853" y="415" width="50" height="30" as="geometry" />
        </mxCell>
        <mxCell id="REJQzGrKMzvsICrpIetw-24" value="3000 len" style="text;html=1;align=center;verticalAlign=middle;resizable=0;points=[];autosize=1;strokeColor=none;fillColor=none;" vertex="1" parent="1">
          <mxGeometry x="-798" y="370" width="70" height="30" as="geometry" />
        </mxCell>
        <mxCell id="REJQzGrKMzvsICrpIetw-26" value="" style="rounded=0;whiteSpace=wrap;html=1;" vertex="1" parent="1">
          <mxGeometry x="-670" y="430" width="30" height="10" as="geometry" />
        </mxCell>
        <mxCell id="REJQzGrKMzvsICrpIetw-27" value="" style="rounded=0;whiteSpace=wrap;html=1;" vertex="1" parent="1">
          <mxGeometry x="-630" y="430" width="30" height="10" as="geometry" />
        </mxCell>
        <mxCell id="REJQzGrKMzvsICrpIetw-28" value="" style="rounded=0;whiteSpace=wrap;html=1;" vertex="1" parent="1">
          <mxGeometry x="-590" y="430" width="30" height="10" as="geometry" />
        </mxCell>
        <mxCell id="REJQzGrKMzvsICrpIetw-29" value="......" style="text;html=1;align=center;verticalAlign=middle;resizable=0;points=[];autosize=1;strokeColor=none;fillColor=none;" vertex="1" parent="1">
          <mxGeometry x="-635" y="435" width="40" height="30" as="geometry" />
        </mxCell>
        <mxCell id="REJQzGrKMzvsICrpIetw-31" value="128" style="text;html=1;align=center;verticalAlign=middle;resizable=0;points=[];autosize=1;strokeColor=none;fillColor=none;" vertex="1" parent="1">
          <mxGeometry x="-675" y="400" width="40" height="30" as="geometry" />
        </mxCell>
        <mxCell id="REJQzGrKMzvsICrpIetw-32" value="128" style="text;html=1;align=center;verticalAlign=middle;resizable=0;points=[];autosize=1;strokeColor=none;fillColor=none;" vertex="1" parent="1">
          <mxGeometry x="-635" y="400" width="40" height="30" as="geometry" />
        </mxCell>
        <mxCell id="REJQzGrKMzvsICrpIetw-33" value="128" style="text;html=1;align=center;verticalAlign=middle;resizable=0;points=[];autosize=1;strokeColor=none;fillColor=none;" vertex="1" parent="1">
          <mxGeometry x="-595" y="400" width="40" height="30" as="geometry" />
        </mxCell>
        <mxCell id="REJQzGrKMzvsICrpIetw-34" value="" style="shape=trapezoid;perimeter=trapezoidPerimeter;whiteSpace=wrap;html=1;fixedSize=1;rotation=90;size=10;textDirection=rtl;" vertex="1" parent="1">
          <mxGeometry x="-510" y="416.25" width="47.5" height="27.5" as="geometry" />
        </mxCell>
        <mxCell id="REJQzGrKMzvsICrpIetw-35" value="" style="endArrow=classic;html=1;rounded=0;" edge="1" parent="1">
          <mxGeometry width="50" height="50" relative="1" as="geometry">
            <mxPoint x="-555" y="439.77" as="sourcePoint" />
            <mxPoint x="-510" y="440" as="targetPoint" />
          </mxGeometry>
        </mxCell>
        <mxCell id="REJQzGrKMzvsICrpIetw-41" style="edgeStyle=orthogonalEdgeStyle;rounded=0;orthogonalLoop=1;jettySize=auto;html=1;" edge="1" parent="1" source="REJQzGrKMzvsICrpIetw-37">
          <mxGeometry relative="1" as="geometry">
            <mxPoint x="-510" y="418" as="targetPoint" />
            <Array as="points">
              <mxPoint x="-530" y="365" />
              <mxPoint x="-530" y="418" />
            </Array>
          </mxGeometry>
        </mxCell>
        <mxCell id="REJQzGrKMzvsICrpIetw-37" value="query" style="shape=umlActor;verticalLabelPosition=bottom;verticalAlign=top;html=1;outlineConnect=0;" vertex="1" parent="1">
          <mxGeometry x="-560" y="350" width="15" height="30" as="geometry" />
        </mxCell>
        <mxCell id="REJQzGrKMzvsICrpIetw-42" value="" style="endArrow=classic;html=1;rounded=0;" edge="1" parent="1">
          <mxGeometry width="50" height="50" relative="1" as="geometry">
            <mxPoint x="-462.5" y="419.67" as="sourcePoint" />
            <mxPoint x="-432.5" y="419.67" as="targetPoint" />
          </mxGeometry>
        </mxCell>
        <mxCell id="REJQzGrKMzvsICrpIetw-43" value="" style="endArrow=classic;html=1;rounded=0;" edge="1" parent="1">
          <mxGeometry width="50" height="50" relative="1" as="geometry">
            <mxPoint x="-462.5" y="439.67" as="sourcePoint" />
            <mxPoint x="-432.5" y="439.67" as="targetPoint" />
          </mxGeometry>
        </mxCell>
        <mxCell id="REJQzGrKMzvsICrpIetw-45" value="" style="rounded=0;whiteSpace=wrap;html=1;fillColor=#f5f5f5;fontColor=#333333;strokeColor=#666666;" vertex="1" parent="1">
          <mxGeometry x="-420" y="445" width="30" height="10" as="geometry" />
        </mxCell>
        <mxCell id="REJQzGrKMzvsICrpIetw-46" value="" style="rounded=0;whiteSpace=wrap;html=1;fillColor=#f5f5f5;fontColor=#333333;strokeColor=#666666;" vertex="1" parent="1">
          <mxGeometry x="-370" y="445" width="30" height="10" as="geometry" />
        </mxCell>
        <mxCell id="REJQzGrKMzvsICrpIetw-47" value="" style="rounded=0;whiteSpace=wrap;html=1;fillColor=#f5f5f5;fontColor=#333333;strokeColor=#666666;" vertex="1" parent="1">
          <mxGeometry x="-330" y="445" width="30" height="10" as="geometry" />
        </mxCell>
        <mxCell id="REJQzGrKMzvsICrpIetw-52" style="edgeStyle=orthogonalEdgeStyle;rounded=0;orthogonalLoop=1;jettySize=auto;html=1;entryX=0.5;entryY=0;entryDx=0;entryDy=0;startArrow=classic;startFill=1;" edge="1" parent="1" source="REJQzGrKMzvsICrpIetw-51" target="REJQzGrKMzvsICrpIetw-45">
          <mxGeometry relative="1" as="geometry" />
        </mxCell>
        <mxCell id="REJQzGrKMzvsICrpIetw-53" style="rounded=0;orthogonalLoop=1;jettySize=auto;html=1;entryX=0.5;entryY=0;entryDx=0;entryDy=0;startArrow=classic;startFill=1;" edge="1" parent="1" source="REJQzGrKMzvsICrpIetw-51" target="REJQzGrKMzvsICrpIetw-46">
          <mxGeometry relative="1" as="geometry" />
        </mxCell>
        <mxCell id="REJQzGrKMzvsICrpIetw-54" style="rounded=0;orthogonalLoop=1;jettySize=auto;html=1;entryX=0.5;entryY=0;entryDx=0;entryDy=0;startArrow=classic;startFill=1;" edge="1" parent="1" source="REJQzGrKMzvsICrpIetw-51" target="REJQzGrKMzvsICrpIetw-47">
          <mxGeometry relative="1" as="geometry" />
        </mxCell>
        <mxCell id="REJQzGrKMzvsICrpIetw-51" value="" style="rounded=0;whiteSpace=wrap;html=1;fillColor=#f5f5f5;fontColor=#333333;strokeColor=#666666;" vertex="1" parent="1">
          <mxGeometry x="-420" y="405" width="30" height="10" as="geometry" />
        </mxCell>
        <mxCell id="REJQzGrKMzvsICrpIetw-57" value="&lt;font color=&quot;#ff0000&quot;&gt;max&lt;/font&gt;" style="text;html=1;align=center;verticalAlign=middle;resizable=0;points=[];autosize=1;strokeColor=none;fillColor=none;" vertex="1" parent="1">
          <mxGeometry x="-430" y="370" width="50" height="30" as="geometry" />
        </mxCell>
        <mxCell id="REJQzGrKMzvsICrpIetw-61" value="vs" style="text;html=1;align=center;verticalAlign=middle;resizable=0;points=[];autosize=1;strokeColor=none;fillColor=none;" vertex="1" parent="1">
          <mxGeometry x="-520" y="360" width="40" height="30" as="geometry" />
        </mxCell>
        <mxCell id="REJQzGrKMzvsICrpIetw-63" value="top10" style="text;html=1;align=center;verticalAlign=middle;resizable=0;points=[];autosize=1;strokeColor=none;fillColor=none;" vertex="1" parent="1">
          <mxGeometry x="-240" y="440" width="50" height="30" as="geometry" />
        </mxCell>
        <mxCell id="REJQzGrKMzvsICrpIetw-65" value="top10" style="text;html=1;align=center;verticalAlign=middle;resizable=0;points=[];autosize=1;strokeColor=none;fillColor=none;" vertex="1" parent="1">
          <mxGeometry x="-330" y="620" width="50" height="30" as="geometry" />
        </mxCell>
        <mxCell id="REJQzGrKMzvsICrpIetw-67" style="edgeStyle=orthogonalEdgeStyle;rounded=0;orthogonalLoop=1;jettySize=auto;html=1;" edge="1" parent="1" source="REJQzGrKMzvsICrpIetw-66">
          <mxGeometry relative="1" as="geometry">
            <mxPoint x="-460" y="610" as="targetPoint" />
          </mxGeometry>
        </mxCell>
        <mxCell id="REJQzGrKMzvsICrpIetw-66" value="" style="shape=trapezoid;perimeter=trapezoidPerimeter;whiteSpace=wrap;html=1;fixedSize=1;rotation=-90;size=10;textDirection=rtl;" vertex="1" parent="1">
          <mxGeometry x="-400" y="596.25" width="47.5" height="27.5" as="geometry" />
        </mxCell>
        <mxCell id="REJQzGrKMzvsICrpIetw-68" value="ranking" style="text;html=1;align=center;verticalAlign=middle;resizable=0;points=[];autosize=1;strokeColor=none;fillColor=none;" vertex="1" parent="1">
          <mxGeometry x="-450" y="580" width="60" height="30" as="geometry" />
        </mxCell>
        <mxCell id="REJQzGrKMzvsICrpIetw-70" value="" style="rounded=0;whiteSpace=wrap;html=1;" vertex="1" parent="1">
          <mxGeometry x="-560" y="570" width="80" height="20" as="geometry" />
        </mxCell>
        <mxCell id="REJQzGrKMzvsICrpIetw-71" value="" style="rounded=0;whiteSpace=wrap;html=1;" vertex="1" parent="1">
          <mxGeometry x="-560" y="600" width="80" height="20" as="geometry" />
        </mxCell>
        <mxCell id="REJQzGrKMzvsICrpIetw-72" value="" style="rounded=0;whiteSpace=wrap;html=1;" vertex="1" parent="1">
          <mxGeometry x="-560" y="630" width="80" height="20" as="geometry" />
        </mxCell>
        <mxCell id="REJQzGrKMzvsICrpIetw-80" style="edgeStyle=orthogonalEdgeStyle;rounded=0;orthogonalLoop=1;jettySize=auto;html=1;entryX=0.5;entryY=1;entryDx=0;entryDy=0;" edge="1" parent="1" source="REJQzGrKMzvsICrpIetw-74" target="REJQzGrKMzvsICrpIetw-79">
          <mxGeometry relative="1" as="geometry" />
        </mxCell>
        <mxCell id="REJQzGrKMzvsICrpIetw-74" value="top1&lt;span style=&quot;color: rgba(0, 0, 0, 0); font-family: monospace; font-size: 0px; text-align: start;&quot;&gt;%3CmxGraphModel%3E%3Croot%3E%3CmxCell%20id%3D%220%22%2F%3E%3CmxCell%20id%3D%221%22%20parent%3D%220%22%2F%3E%3CmxCell%20id%3D%222%22%20value%3D%22%22%20style%3D%22rounded%3D1%3BwhiteSpace%3Dwrap%3Bhtml%3D1%3Bdashed%3D1%3BfillColor%3D%23f5f5f5%3BfontColor%3D%23333333%3BstrokeColor%3D%23666666%3B%22%20vertex%3D%221%22%20parent%3D%221%22%3E%3CmxGeometry%20x%3D%22-813%22%20y%3D%22375%22%20width%3D%22100%22%20height%3D%2250%22%20as%3D%22geometry%22%2F%3E%3C%2FmxCell%3E%3CmxCell%20id%3D%223%22%20value%3D%22%22%20style%3D%22rounded%3D0%3BwhiteSpace%3Dwrap%3Bhtml%3D1%3B%22%20vertex%3D%221%22%20parent%3D%221%22%3E%3CmxGeometry%20x%3D%22-803%22%20y%3D%22400%22%20width%3D%2280%22%20height%3D%2220%22%20as%3D%22geometry%22%2F%3E%3C%2FmxCell%3E%3CmxCell%20id%3D%224%22%20value%3D%22%22%20style%3D%22rounded%3D0%3BwhiteSpace%3Dwrap%3Bhtml%3D1%3B%22%20vertex%3D%221%22%20parent%3D%221%22%3E%3CmxGeometry%20x%3D%22-803%22%20y%3D%22430%22%20width%3D%2280%22%20height%3D%2220%22%20as%3D%22geometry%22%2F%3E%3C%2FmxCell%3E%3CmxCell%20id%3D%225%22%20value%3D%22%22%20style%3D%22rounded%3D0%3BwhiteSpace%3Dwrap%3Bhtml%3D1%3B%22%20vertex%3D%221%22%20parent%3D%221%22%3E%3CmxGeometry%20x%3D%22-803%22%20y%3D%22460%22%20width%3D%2280%22%20height%3D%2220%22%20as%3D%22geometry%22%2F%3E%3C%2FmxCell%3E%3CmxCell%20id%3D%226%22%20value%3D%223000%20len%22%20style%3D%22text%3Bhtml%3D1%3Balign%3Dcenter%3BverticalAlign%3Dmiddle%3Bresizable%3D0%3Bpoints%3D%5B%5D%3Bautosize%3D1%3BstrokeColor%3Dnone%3BfillColor%3Dnone%3B%22%20vertex%3D%221%22%20parent%3D%221%22%3E%3CmxGeometry%20x%3D%22-798%22%20y%3D%22370%22%20width%3D%2270%22%20height%3D%2230%22%20as%3D%22geometry%22%2F%3E%3C%2FmxCell%3E%3C%2Froot%3E%3C%2FmxGraphModel%3E&lt;/span&gt;" style="text;html=1;align=center;verticalAlign=middle;resizable=0;points=[];autosize=1;strokeColor=none;fillColor=none;" vertex="1" parent="1">
          <mxGeometry x="-620" y="563.75" width="50" height="30" as="geometry" />
        </mxCell>
        <mxCell id="REJQzGrKMzvsICrpIetw-75" value="top2&lt;span style=&quot;color: rgba(0, 0, 0, 0); font-family: monospace; font-size: 0px; text-align: start;&quot;&gt;%3CmxGraphModel%3E%3Croot%3E%3CmxCell%20id%3D%220%22%2F%3E%3CmxCell%20id%3D%221%22%20parent%3D%220%22%2F%3E%3CmxCell%20id%3D%222%22%20value%3D%22%22%20style%3D%22rounded%3D1%3BwhiteSpace%3Dwrap%3Bhtml%3D1%3Bdashed%3D1%3BfillColor%3D%23f5f5f5%3BfontColor%3D%23333333%3BstrokeColor%3D%23666666%3B%22%20vertex%3D%221%22%20parent%3D%221%22%3E%3CmxGeometry%20x%3D%22-813%22%20y%3D%22375%22%20width%3D%22100%22%20height%3D%2250%22%20as%3D%22geometry%22%2F%3E%3C%2FmxCell%3E%3CmxCell%20id%3D%223%22%20value%3D%22%22%20style%3D%22rounded%3D0%3BwhiteSpace%3Dwrap%3Bhtml%3D1%3B%22%20vertex%3D%221%22%20parent%3D%221%22%3E%3CmxGeometry%20x%3D%22-803%22%20y%3D%22400%22%20width%3D%2280%22%20height%3D%2220%22%20as%3D%22geometry%22%2F%3E%3C%2FmxCell%3E%3CmxCell%20id%3D%224%22%20value%3D%22%22%20style%3D%22rounded%3D0%3BwhiteSpace%3Dwrap%3Bhtml%3D1%3B%22%20vertex%3D%221%22%20parent%3D%221%22%3E%3CmxGeometry%20x%3D%22-803%22%20y%3D%22430%22%20width%3D%2280%22%20height%3D%2220%22%20as%3D%22geometry%22%2F%3E%3C%2FmxCell%3E%3CmxCell%20id%3D%225%22%20value%3D%22%22%20style%3D%22rounded%3D0%3BwhiteSpace%3Dwrap%3Bhtml%3D1%3B%22%20vertex%3D%221%22%20parent%3D%221%22%3E%3CmxGeometry%20x%3D%22-803%22%20y%3D%22460%22%20width%3D%2280%22%20height%3D%2220%22%20as%3D%22geometry%22%2F%3E%3C%2FmxCell%3E%3CmxCell%20id%3D%226%22%20value%3D%223000%20len%22%20style%3D%22text%3Bhtml%3D1%3Balign%3Dcenter%3BverticalAlign%3Dmiddle%3Bresizable%3D0%3Bpoints%3D%5B%5D%3Bautosize%3D1%3BstrokeColor%3Dnone%3BfillColor%3Dnone%3B%22%20vertex%3D%221%22%20parent%3D%221%22%3E%3CmxGeometry%20x%3D%22-798%22%20y%3D%22370%22%20width%3D%2270%22%20height%3D%2230%22%20as%3D%22geometry%22%2F%3E%3C%2FmxCell%3E%3C%2Froot%3E%3C%2FmxGraphMo&lt;/span&gt;" style="text;html=1;align=center;verticalAlign=middle;resizable=0;points=[];autosize=1;strokeColor=none;fillColor=none;" vertex="1" parent="1">
          <mxGeometry x="-620" y="593.75" width="50" height="30" as="geometry" />
        </mxCell>
        <mxCell id="REJQzGrKMzvsICrpIetw-76" value="top3&lt;span style=&quot;color: rgba(0, 0, 0, 0); font-family: monospace; font-size: 0px; text-align: start;&quot;&gt;3CmxGraphModel%3E%3Croot%3E%3CmxCell%20id%3D%220%22%2F%3E%3CmxCell%20id%3D%221%22%20parent%3D%220%22%2F%3E%3CmxCell%20id%3D%222%22%20value%3D%22%22%20style%3D%22rounded%3D1%3BwhiteSpace%3Dwrap%3Bhtml%3D1%3Bdashed%3D1%3BfillColor%3D%23f5f5f5%3BfontColor%3D%23333333%3BstrokeColor%3D%23666666%3B%22%20vertex%3D%221%22%20parent%3D%221%22%3E%3CmxGeometry%20x%3D%22-813%22%20y%3D%22375%22%20width%3D%22100%22%20height%3D%2250%22%20as%3D%22geometry%22%2F%3E%3C%2FmxCell%3E%3CmxCell%20id%3D%223%22%20value%3D%22%22%20style%3D%22rounded%3D0%3BwhiteSpace%3Dwrap%3Bhtml%3D1%3B%22%20vertex%3D%221%22%20parent%3D%221%22%3E%3CmxGeometry%20x%3D%22-803%22%20y%3D%22400%22%20width%3D%2280%22%20height%3D%2220%22%20as%3D%22geometry%22%2F%3E%3C%2FmxCell%3E%3CmxCell%20id%3D%224%22%20value%3D%22%22%20style%3D%22rounded%3D0%3BwhiteSpace%3Dwrap%3Bhtml%3D1%3B%22%20vertex%3D%221%22%20parent%3D%221%22%3E%3CmxGeometry%20x%3D%22-803%22%20y%3D%22430%22%20width%3D%2280%22%20height%3D%2220%22%20as%3D%22geometry%22%2F%3E%3C%2FmxCell%3E%3CmxCell%20id%3D%225%22%20value%3D%22%22%20style%3D%22rounded%3D0%3BwhiteSpace%3Dwrap%3Bhtml%3D1%3B%22%20vertex%3D%221%22%20parent%3D%221%22%3E%3CmxGeometry%20x%3D%22-803%22%20y%3D%22460%22%20width%3D%2280%22%20height%3D%2220%22%20as%3D%22geometry%22%2F%3E%3C%2FmxCell%3E%3CmxCell%20id%3D%226%22%20value%3D%223000%20len%22%20style%3D%22text%3Bhtml%3D1%3Balign%3Dcenter%3BverticalAlign%3Dmiddle%3Bresizable%3D0%3Bpoints%3D%5B%5D%3Bautosize%3D1%3BstrokeColor%3Dnone%3BfillColor%3Dnone%3B%22%20vertex%3D%221%22%20parent%3D%221%22%3E%3CmxGeometry%20x%3D%22-798%22%20y%3D%22370%22%20width%3D%2270%22%20height%3D%2230%22%20as%3D%22geometry%22%2F%3E%3C%2FmxCell%3E%3C%2Froot%3E%3C%2FmxGraphModel%3&lt;/span&gt;" style="text;html=1;align=center;verticalAlign=middle;resizable=0;points=[];autosize=1;strokeColor=none;fillColor=none;" vertex="1" parent="1">
          <mxGeometry x="-620" y="623.75" width="50" height="30" as="geometry" />
        </mxCell>
        <mxCell id="REJQzGrKMzvsICrpIetw-81" style="edgeStyle=orthogonalEdgeStyle;rounded=0;orthogonalLoop=1;jettySize=auto;html=1;" edge="1" parent="1" source="REJQzGrKMzvsICrpIetw-79">
          <mxGeometry relative="1" as="geometry">
            <mxPoint x="-840" y="595" as="targetPoint" />
          </mxGeometry>
        </mxCell>
        <mxCell id="REJQzGrKMzvsICrpIetw-79" value="LLM" style="shape=trapezoid;perimeter=trapezoidPerimeter;whiteSpace=wrap;html=1;fixedSize=1;rotation=-90;textDirection=vertical-lr;" vertex="1" parent="1">
          <mxGeometry x="-813" y="565" width="120" height="60" as="geometry" />
        </mxCell>
        <mxCell id="REJQzGrKMzvsICrpIetw-82" value="&lt;font style=&quot;font-size: 18px;&quot;&gt;ans&lt;/font&gt;" style="text;html=1;align=center;verticalAlign=middle;resizable=0;points=[];autosize=1;strokeColor=none;fillColor=none;" vertex="1" parent="1">
          <mxGeometry x="-905" y="575" width="50" height="40" as="geometry" />
        </mxCell>
        <mxCell id="REJQzGrKMzvsICrpIetw-85" style="edgeStyle=orthogonalEdgeStyle;rounded=0;orthogonalLoop=1;jettySize=auto;html=1;entryX=0.5;entryY=0;entryDx=0;entryDy=0;" edge="1" parent="1" source="REJQzGrKMzvsICrpIetw-83" target="REJQzGrKMzvsICrpIetw-10">
          <mxGeometry relative="1" as="geometry" />
        </mxCell>
        <mxCell id="REJQzGrKMzvsICrpIetw-83" value="ES" style="rounded=1;whiteSpace=wrap;html=1;" vertex="1" parent="1">
          <mxGeometry x="-462.5" y="480" width="120" height="60" as="geometry" />
        </mxCell>
        <mxCell id="REJQzGrKMzvsICrpIetw-86" value="top10" style="text;html=1;align=center;verticalAlign=middle;resizable=0;points=[];autosize=1;strokeColor=none;fillColor=none;" vertex="1" parent="1">
          <mxGeometry x="-320" y="510" width="50" height="30" as="geometry" />
        </mxCell>
        <mxCell id="REJQzGrKMzvsICrpIetw-89" value="" style="sketch=0;outlineConnect=0;fontColor=#232F3E;gradientColor=none;fillColor=#232F3D;strokeColor=none;dashed=0;verticalLabelPosition=bottom;verticalAlign=top;align=center;html=1;fontSize=12;fontStyle=0;aspect=fixed;pointerEvents=1;shape=mxgraph.aws4.documents;" vertex="1" parent="1">
          <mxGeometry x="-892" y="960" width="64" height="78" as="geometry" />
        </mxCell>
        <mxCell id="REJQzGrKMzvsICrpIetw-90" value="VS" style="html=1;verticalLabelPosition=bottom;align=center;labelBackgroundColor=#ffffff;verticalAlign=top;strokeWidth=2;strokeColor=#000000;shadow=0;dashed=0;shape=mxgraph.ios7.icons.data;" vertex="1" parent="1">
          <mxGeometry x="-684" y="900" width="64" height="73.55" as="geometry" />
        </mxCell>
        <mxCell id="REJQzGrKMzvsICrpIetw-91" value="ES" style="html=1;verticalLabelPosition=bottom;align=center;labelBackgroundColor=#ffffff;verticalAlign=top;strokeWidth=2;strokeColor=#000000;shadow=0;dashed=0;shape=mxgraph.ios7.icons.data;" vertex="1" parent="1">
          <mxGeometry x="-684" y="1038" width="64" height="73.55" as="geometry" />
        </mxCell>
        <mxCell id="REJQzGrKMzvsICrpIetw-92" style="edgeStyle=orthogonalEdgeStyle;rounded=0;orthogonalLoop=1;jettySize=auto;html=1;entryX=-0.011;entryY=0.468;entryDx=0;entryDy=0;entryPerimeter=0;" edge="1" parent="1" source="REJQzGrKMzvsICrpIetw-89" target="REJQzGrKMzvsICrpIetw-90">
          <mxGeometry relative="1" as="geometry" />
        </mxCell>
        <mxCell id="REJQzGrKMzvsICrpIetw-93" style="edgeStyle=orthogonalEdgeStyle;rounded=0;orthogonalLoop=1;jettySize=auto;html=1;entryX=-0.016;entryY=0.566;entryDx=0;entryDy=0;entryPerimeter=0;" edge="1" parent="1" source="REJQzGrKMzvsICrpIetw-89" target="REJQzGrKMzvsICrpIetw-91">
          <mxGeometry relative="1" as="geometry" />
        </mxCell>
        <mxCell id="REJQzGrKMzvsICrpIetw-94" value="&lt;font style=&quot;font-size: 16px;&quot;&gt;query&lt;/font&gt;" style="verticalLabelPosition=bottom;html=1;verticalAlign=top;align=center;strokeColor=none;fillColor=#000000;shape=mxgraph.azure.user;" vertex="1" parent="1">
          <mxGeometry x="-883.75" y="750" width="47.5" height="50" as="geometry" />
        </mxCell>
      </root>
    </mxGraphModel>
  </diagram>
</mxfile>
